<svg width="404" height="404" viewBox="0 0 404 404" fill="none" xmlns="http://www.w3.org/2000/svg">
<g clip-path="url(#clip0_344_809)">
<path d="M399.453 338.999C396.352 332.928 392.301 327.392 387.453 322.599C381.881 316.959 375.422 312.27 368.333 308.719C350.893 299.999 327.773 297.399 301.013 310.519C280.599 319.989 258.731 325.94 236.333 328.119C319.699 289.496 355.97 190.605 317.347 107.239C278.724 23.8731 179.833 -12.398 96.467 26.2251C13.101 64.8481 -23.17 163.739 15.453 247.105C42.38 305.225 100.283 342.723 164.333 343.519L164.453 343.479C196.693 361.039 240.813 356.839 277.253 353.319C289.548 351.867 301.913 351.093 314.293 350.999C341.493 351.679 340.013 380.479 339.773 383.719C339.195 387.921 342.132 391.796 346.334 392.375C348.037 392.609 349.769 392.266 351.253 391.399L398.653 363.959C399.944 363.208 400.987 362.096 401.653 360.759C404.373 355.319 403.493 347.279 399.453 338.999ZM60.213 283.919C31.854 255.656 15.895 217.277 15.853 177.239C15.747 137.262 31.566 98.888 59.813 70.599H59.853C118.66 11.593 214.167 11.432 273.173 70.239C332.179 129.046 332.34 224.553 273.533 283.559C214.725 342.565 119.219 342.726 60.213 283.919ZM354.613 371.719C352.493 357.239 344.333 336.399 314.613 335.719C301.632 335.791 288.665 336.592 275.773 338.119L263.373 339.279C278.773 336.128 293.726 331.09 307.893 324.279H307.853C329.533 313.639 347.853 315.559 361.573 322.399C367.152 325.206 372.232 328.908 376.613 333.359C380.288 336.97 383.366 341.142 385.733 345.719C386.852 347.789 387.661 350.013 388.133 352.319L354.613 371.719Z" fill="#AEB9E1"/>
<path d="M279.076 112.239C279.068 112.226 279.061 112.213 279.053 112.199C267.138 94.123 242.826 89.129 224.75 101.043C208.329 111.867 202.471 133.183 211.053 150.879L211.173 151.439C222.02 170.146 245.968 176.536 264.693 165.719C283.433 154.923 289.872 130.979 279.076 112.239ZM256.973 152.399C245.561 158.886 231.056 155.001 224.413 143.679L224.213 143.319C221.286 137.938 220.528 131.641 222.093 125.719C225.698 112.964 238.96 105.546 251.715 109.15C257.574 110.806 262.585 114.627 265.733 119.839C272.212 131.261 268.309 145.77 256.973 152.399Z" fill="#AEB9E1"/>
<path d="M188.533 155.159C182.683 149.292 174.738 145.995 166.453 145.999C149.2 145.988 135.204 159.966 135.193 177.219C135.182 194.472 149.16 208.468 166.413 208.479C183.666 208.49 197.662 194.512 197.673 177.259C197.678 168.972 194.39 161.022 188.533 155.159ZM177.733 188.439C171.51 194.713 161.38 194.754 155.106 188.532C148.832 182.309 148.791 172.179 155.013 165.905C161.236 159.631 171.366 159.59 177.64 165.813C180.685 168.834 182.391 172.951 182.372 177.24C182.377 181.441 180.707 185.471 177.733 188.439Z" fill="#AEB9E1"/>
<path d="M122.093 203.479L121.733 203.039C110.913 184.303 86.9588 177.875 68.2128 188.679C49.4248 199.437 42.9158 223.388 53.6738 242.176C53.6938 242.21 53.7138 242.245 53.7328 242.279C58.9748 251.321 67.6178 257.889 77.7328 260.519C87.5988 263.17 98.1098 261.849 107.013 256.839L107.493 256.559C126.073 245.849 132.582 222.185 122.093 203.479ZM99.7728 243.119L99.4128 243.319C88.0898 249.408 73.9788 245.492 67.4128 234.439C64.1998 229.034 63.2648 222.574 64.8128 216.479L64.8528 216.519C66.4828 210.404 70.4858 205.192 75.9728 202.039C87.3848 195.553 101.891 199.437 108.533 210.759L108.733 211.119C114.808 222.463 110.855 236.58 99.7728 243.119Z" fill="#AEB9E1"/>
<path d="M265.093 189.239L265.213 188.999L264.813 188.759C246.071 177.923 222.092 184.332 211.256 203.074C211.255 203.076 211.254 203.077 211.253 203.079C200.207 221.713 206.359 245.773 224.993 256.819C243.627 267.865 267.687 261.713 278.733 243.079V242.839L278.933 242.479C289.659 223.935 283.493 200.213 265.093 189.239ZM266.013 234.159C265.803 234.479 265.615 234.813 265.453 235.159C257.365 245.661 242.296 247.617 231.794 239.53C223.03 232.78 220.014 220.914 224.492 210.799C231.032 199.717 245.148 195.764 256.492 201.839L257.292 202.279C268.244 208.938 272.03 223.027 265.892 234.279L266.013 234.159Z" fill="#AEB9E1"/>
<path d="M166.48 47.239C144.808 47.231 127.234 64.794 127.226 86.465C127.222 96.883 131.362 106.875 138.732 114.239C146.079 121.598 156.053 125.729 166.452 125.719C188.124 125.727 205.698 108.164 205.706 86.493C205.714 64.821 188.152 47.247 166.48 47.239ZM183.813 103.521C174.479 112.932 159.283 112.994 149.872 103.66C145.314 99.139 142.757 92.98 142.773 86.559C142.758 80.243 145.263 74.182 149.733 69.719C159.067 60.308 174.263 60.246 183.674 69.58C193.085 78.914 193.147 94.11 183.813 103.521Z" fill="#AEB9E1"/>
<path d="M166.48 228.799C144.808 228.791 127.234 246.354 127.226 268.025C127.222 278.443 131.362 288.435 138.732 295.799C146.079 303.158 156.053 307.289 166.452 307.279C188.124 307.287 205.698 289.724 205.706 268.053C205.714 246.381 188.152 228.807 166.48 228.799ZM183.813 285.041C174.479 294.452 159.283 294.514 149.872 285.18C145.314 280.659 142.757 274.5 142.773 268.079C142.758 261.763 145.263 255.702 149.733 251.239C159.067 241.828 174.263 241.766 183.674 251.1C193.085 260.434 193.147 275.63 183.813 285.041Z" fill="#AEB9E1"/>
<path d="M107.677 97.872C107.589 97.821 107.501 97.77 107.413 97.719C88.9502 87.015 65.3152 93.084 54.2932 111.359C54.0162 111.75 53.7752 112.165 53.5732 112.599C43.2712 131.111 49.5422 154.459 67.7332 165.319L67.6932 165.479L68.7732 166.079C87.4652 176.458 111.026 169.945 121.733 151.439C132.643 132.766 126.35 108.783 107.677 97.872ZM108.493 143.719C101.851 155.041 87.3452 158.925 75.9332 152.439C64.6352 145.798 60.7532 131.322 67.2132 119.919H67.1732L67.3732 119.519C74.1282 108.445 88.4602 104.743 99.7332 111.159C111.069 117.788 114.972 132.297 108.493 143.719Z" fill="#AEB9E1"/>
</g>
<defs>
<clipPath id="clip0_344_809">
<rect width="403.219" height="403.219" fill="white"/>
</clipPath>
</defs>
</svg>
