<svg width="423" height="423" viewBox="0 0 423 423" fill="none" xmlns="http://www.w3.org/2000/svg">
<g clip-path="url(#clip0_344_810)">
<path d="M348.8 185.703C348.799 89.385 270.717 11.304 174.399 11.304C78.08 11.305 -0.00099999 89.387 9.6053e-09 185.705C9.6053e-09 231.959 18.375 276.318 51.081 309.024C83.753 341.783 128.135 360.166 174.401 360.104C270.72 360.103 348.801 282.021 348.8 185.703ZM240.361 109.464C256.145 100.308 276.363 105.681 285.519 121.465C294.675 137.249 289.302 157.467 273.518 166.623C257.735 175.779 237.518 170.407 228.361 154.624C219.227 138.837 224.595 118.635 240.361 109.464ZM108.558 261.863C92.775 271.019 72.558 265.647 63.401 249.864C54.244 234.081 59.616 213.862 75.399 204.705L75.401 204.704C91.185 195.548 111.403 200.921 120.559 216.705C129.715 232.489 124.342 252.707 108.558 261.863ZM120.558 154.705C111.401 170.488 91.184 175.86 75.401 166.704C59.635 157.533 54.267 137.331 63.401 121.544C72.558 105.761 92.776 100.389 108.56 109.546C124.344 118.703 129.715 138.921 120.558 154.705ZM174.401 314.024C156.154 314.024 141.361 299.232 141.361 280.984C141.361 262.736 156.153 247.944 174.401 247.944C192.649 247.944 207.441 262.736 207.441 280.984C207.441 299.232 192.649 314.024 174.401 314.024ZM149.721 185.704C149.721 172.074 160.771 161.024 174.401 161.024C188.031 161.024 199.081 172.074 199.081 185.704C199.081 199.334 188.031 210.384 174.401 210.384C160.771 210.384 149.721 199.334 149.721 185.704ZM174.401 123.464C156.154 123.464 141.361 108.671 141.361 90.424C141.361 72.177 156.153 57.384 174.401 57.384C192.649 57.384 207.441 72.176 207.441 90.424C207.441 108.672 192.649 123.464 174.401 123.464ZM285.518 249.985C276.361 265.768 256.144 271.14 240.361 261.984C224.566 252.84 219.161 232.632 228.281 216.824H228.361C237.518 201.04 257.736 195.669 273.52 204.826C289.304 213.983 294.675 234.201 285.518 249.985Z" fill="#6C72FF"/>
<path d="M418.761 355.304C415.549 348.949 411.351 343.144 406.321 338.104C400.494 332.191 393.738 327.272 386.321 323.544C368.041 314.384 343.761 311.544 315.681 325.464C307.495 329.449 299.001 332.767 290.281 335.384C266.598 353.767 238.87 366.232 209.401 371.744C236.001 375.744 265.121 372.864 290.641 370.424C303.533 368.9 316.499 368.085 329.481 367.984C358.041 368.704 356.481 398.944 356.201 402.304C355.584 406.679 358.63 410.726 363.005 411.343C364.805 411.597 366.638 411.23 368.201 410.304L417.921 381.504C419.281 380.719 420.38 379.55 421.081 378.144C423.921 372.424 423.041 364.024 418.761 355.304Z" fill="#6C72FF"/>
</g>
<defs>
<clipPath id="clip0_344_810">
<rect width="422.726" height="422.726" fill="white"/>
</clipPath>
</defs>
</svg>
