<svg id="object" height="512" viewBox="0 0 100 100" width="512" xmlns="http://www.w3.org/2000/svg"><g id="_01"><path d="m88.193 72.819h-76.386c-3.664 0-6.645-2.981-6.645-6.645v-46.28c0-3.664 2.981-6.645 6.645-6.645h76.387c3.664 0 6.645 2.981 6.645 6.645v46.281c0 3.664-2.981 6.645-6.645 6.645zm-76.386-55.57c-1.458 0-2.645 1.187-2.645 2.645v46.281c0 1.458 1.187 2.645 2.645 2.645h76.387c1.458 0 2.645-1.187 2.645-2.645v-46.281c0-1.458-1.187-2.645-2.645-2.645z"/><path d="m76.423 86.751h-52.846c-3.001 0-5.443-2.442-5.443-5.443s2.442-5.443 5.443-5.443h52.847c3.001 0 5.443 2.442 5.443 5.443s-2.442 5.443-5.443 5.443zm-52.847-6.886c-.796 0-1.443.647-1.443 1.443s.647 1.443 1.443 1.443h52.847c.796 0 1.443-.647 1.443-1.443s-.647-1.443-1.443-1.443h-52.846z"/><path d="m43.806 59.875c-.994 0-1.987-.261-2.893-.784-1.812-1.046-2.894-2.919-2.894-5.011v-22.091c0-2.092 1.082-3.965 2.894-5.011 1.811-1.046 3.974-1.045 5.786 0l19.131 11.045c1.812 1.045 2.893 2.919 2.893 5.011s-1.082 3.965-2.893 5.011l-19.131 11.045c-.906.523-1.899.785-2.893.785zm.009-29.679c-.412 0-.739.151-.902.246-.269.155-.893.616-.893 1.547v22.091c0 .931.625 1.392.893 1.547s.98.464 1.786 0l19.131-11.045c.806-.465.893-1.237.893-1.547s-.087-1.082-.893-1.547l-19.131-11.045c-.316-.183-.618-.246-.884-.246z"/></g></svg>